<?xml version="1.0" encoding="UTF-8"?>
<svg width="732px" height="1080px" viewBox="0 0 610 900" version="1.1" xmlns="http://www.w3.org/2000/svg" xmlns:xlink="http://www.w3.org/1999/xlink">
    <!-- Generator: sketchtool 53.2 (72643) - https://sketchapp.com -->
    <title>13843E10-8BA1-49AE-ABED-992D064683A8</title>
    <desc>Created with sketchtool.</desc>
    <g id="Page-1" stroke="none" stroke-width="1" fill="none" fill-rule="evenodd" stroke-linecap="round" stroke-linejoin="round">
        <g id="sc1" transform="translate(-30.000000, 0.000000)" stroke="#1D1D1D">
            <g id="image-2" transform="translate(31.000000, 0.000000)">
                <g id="image">
                    <path d="M478.177417,1 C476.235605,3.2197328 474.083796,5.2900774 472.38449,7.68292476 C460.246847,24.7764491 448.784883,42.3699844 440.037064,61.4169791 C429.674289,83.9833838 419.760503,106.743114 408.302055,128.796327 C399.191353,146.330107 392.404676,164.871818 385.335953,183.285231 C383.223683,188.789746 380.744138,194.16157 378.248778,199.50791 C377.465024,201.18633 376.27797,202.795329 374.927488,204.06425 C372.381166,206.457097 369.159164,206.55376 366.696314,204.061613 C362.90319,200.222337 359.443074,196.054406 355.823923,192.042015 C351.812895,187.592883 348.030315,182.900336 343.709124,178.772829 C333.022129,168.565221 319.150034,170.589871 308.001748,177.113741 C295.194574,184.607756 286.125169,195.842627 278.428213,208.276997 C273.119421,216.854515 267.987238,225.544514 262.551043,234.040309 C260.543332,237.17834 257.767683,239.814602 255.560519,242.837516 C252.00551,247.706692 245.027287,248.161008 239.766821,243.593244 C235.776881,240.130075 231.947733,236.396248 228.531549,232.370676 C214.585648,215.933581 198.541535,202.181958 178.949442,192.893528 C170.808768,189.03404 162.191867,186.229057 153.164637,186.748401 C136.015185,187.735241 124.91171,197.957788 124.05415,216.18139 C123.372319,230.657106 129.195998,242.888484 137.767209,254.04866 C149.216871,268.957602 165.43935,276.178324 182.724992,281.457879 C190.372745,283.794486 198.231372,285.450937 206.011801,287.341137 C215.463417,289.637322 224.743698,288.487911 233.886909,285.668868 C239.376702,283.975509 245.037831,282.153852 250.040853,286.203151 C253.514148,289.013406 257.190412,292.299068 259.061932,296.195463 C262.209249,302.753605 264.641347,309.829333 266.141199,316.947241 C267.269383,322.302368 265.800283,327.935182 262.588825,332.705938 C259.564518,337.195492 256.614018,338.336994 251.383427,336.836961 C247.298592,335.66646 243.313923,334.136549 239.304653,332.712968 C229.120243,329.096895 218.894538,329.081077 208.950878,333.203313 C198.35614,337.596204 188.387879,343.082266 180.165491,351.405825 C173.577388,358.074689 170.04698,366.14956 169.083103,375.184031 C168.036633,384.98126 167.288904,394.881304 167.442667,404.720713 C167.666722,419.032102 172.323557,432.064904 182.356839,442.532622 C190.905205,451.450219 199.902561,459.956558 209.00799,468.309116 C211.783639,470.854866 215.404548,472.745066 218.953407,474.118559 C223.906346,476.036879 227.579095,474.272341 230.144747,469.650094 C233.952807,462.787904 234.721624,455.066292 236.403357,447.595125 C239.62448,433.289008 243.085475,419.025951 251.033725,406.437799 C252.99926,403.32613 255.78106,400.659112 258.490811,398.110725 C261.520389,395.261804 265.167657,395.97711 268.389659,397.727588 C270.694353,398.979813 272.780263,400.792682 274.645633,402.671459 C288.03535,416.150667 303.140188,427.133336 319.967176,436.070265 C336.118484,444.647783 350.898222,455.430096 365.031276,467.095556 C372.259034,473.061418 379.611561,478.993887 388.698539,482.150371 C403.538904,487.304264 413.844566,481.360371 419.046162,468.387325 C424.245123,455.421308 423.817221,442.218907 420.376436,428.8513 C415.711693,410.729634 404.892022,396.100136 394.108374,381.418791 C382.840592,366.076624 372.72296,350.110541 366.635687,331.889575 C362.660683,319.990366 360.178503,307.788866 361.347983,295.270135 C362.695829,280.847145 366.39318,266.939983 373.32132,254.063599 C374.176244,252.474812 375.060164,250.83242 376.255125,249.509017 C379.480642,245.93776 383.033016,244.00538 388.321599,245.617015 C396.955194,248.247126 404.615247,252.657593 412.467725,256.887915 C425.389123,263.847647 436.858115,272.540282 444.735195,284.950047 C450.231138,293.611048 454.491702,303.083138 458.993895,312.344327 C465.796387,326.341122 474.164631,339.18587 485.692493,349.756403 C491.305297,354.903266 497.469012,359.108104 505.217809,360.652075 C516.324799,362.866535 524.663169,358.290863 531.398006,350.159751 C539.151196,340.799263 542.322236,329.526606 544.423084,317.748665 C547.015974,303.214072 545.72524,288.606543 545.943145,274.032407 C546.054733,266.546301 545.012657,259.032953 545.297339,251.561786 C545.61453,243.218016 547.193461,234.926093 547.580945,226.580565 C548.00006,217.582124 548.283863,208.498443 547.532619,199.543939 C546.422887,186.316932 544.061081,173.19977 542.773861,159.983309 C541.763416,149.62192 541.237106,139.185836 541.100037,128.775237 C540.921671,115.079854 539.989426,101.518921 537.810379,87.9676548 C535.820241,75.5877673 533.42944,63.3449655 529.759327,51.3675474 C526.517116,40.7829546 522.044797,30.6983728 515.990034,21.431911 C511.425458,14.4440586 506.338086,7.79804154 501.481798,1" id="Stroke-1"></path>
                    <path d="M456.586176,1 C455.334984,3.218423 453.993101,5.39117776 452.84757,7.66229489 C445.728722,21.7904702 438.369498,35.8079878 431.648636,50.1232273 C425.551169,63.1088182 420.411687,76.5414309 414.394346,89.5674206 C408.750337,101.783677 402.750605,113.853268 396.452384,125.746334 C391.858812,134.420667 386.702601,142.818355 381.42576,151.102751 C379.509791,154.108951 376.767912,156.744536 373.958234,158.99721 C368.84957,163.092423 362.986316,162.071913 357.34847,160.260991 C352.539176,158.715297 347.997553,156.243942 343.127504,155.00563 C333.83382,152.644054 324.47674,153.366842 315.655884,157.053675 C300.963851,163.194298 289.357972,173.47668 278.892341,185.239767 C272.693617,192.207688 266.516905,199.270458 259.645478,205.545451 C251.872418,212.643351 244.980739,213.386338 236.035733,208.859912 C227.27211,204.425701 218.999807,199.022796 210.538196,194.001045 C197.117605,186.038083 183.136135,179.222097 167.972153,175.386842 C155.041121,172.115415 142.103044,172.101363 130.057796,179.050841 C119.458329,185.165995 113.546648,194.574533 111.730175,206.491311 C108.446788,228.010716 116.627519,246.343884 128.435913,263.433469 C136.403564,274.966458 146.969571,284.029849 157.949414,292.639192 C161.258336,295.2335 164.264365,298.266926 167.127753,301.358315 C172.076167,306.702378 172.341197,313.713333 167.05115,318.67712 C162.735816,322.727542 157.551428,325.913781 152.532574,329.141297 C147.82894,332.16594 142.749332,334.602165 137.991987,337.549524 C131.795904,341.386535 130.585215,347.298817 133.386088,354.567972 C136.43262,362.475605 140.041792,370.219008 142.389207,378.327757 C144.326308,385.022547 145.494733,392.116933 145.758883,399.082219 C146.524919,419.242995 151.106163,438.002106 164.710779,453.524919 C179.173882,470.024331 192.171833,487.595189 204.787646,505.498899 C207.637827,509.543174 211.504985,512.923503 215.152019,516.346865 C222.611621,523.348159 230.975496,521.690928 238.47384,516.375847 C249.408777,508.626296 254.548259,497.458653 256.775045,484.756732 C258.420701,475.372785 259.335541,465.857103 261.116794,456.503016 C261.93566,452.208444 263.441316,447.786528 265.713888,444.080374 C270.193875,436.777846 277.544295,434.324056 286.014711,436.527549 C307.724335,442.175481 327.392958,451.987129 344.775802,466.101253 C355.16659,474.53934 364.955115,483.714267 375.323891,492.180457 C381.723369,497.405081 388.990141,501.136703 397.353136,502.72631 C408.842789,504.909603 417.644274,500.637866 424.86614,492.230517 C431.727001,484.243843 434.643219,474.582373 436.1568,464.384302 C439.910374,439.085849 433.51882,416.09452 419.819991,394.96066 C412.832338,384.177684 404.936008,373.984004 397.838292,363.268652 C388.893286,349.763146 381.944375,335.335492 378.992937,319.216357 C377.11659,308.970861 376.745019,298.793867 380.305763,288.860145 C385.071913,275.561024 395.305092,269.693532 409.909956,276.716782 C420.406404,281.764002 427.449529,290.05718 433.200079,299.680007 C441.111377,312.916773 448.244312,326.649742 456.745546,339.489546 C465.015208,351.981569 474.529898,363.649806 487.014517,372.47783 C494.061163,377.46006 501.753217,380.806138 510.386526,381.116155 C522.181712,381.539464 531.954389,376.528252 539.948454,368.252639 C551.146661,356.661686 556.567904,342.231398 559.622361,326.705071 C561.67921,316.246164 562.253297,305.715242 562.134429,295.085078 C561.979461,281.22213 561.816568,267.346887 562.207511,253.492721 C562.422353,245.849437 563.792412,238.240404 564.592787,230.611172 C566.168002,215.584562 567.153283,200.630845 563.439331,185.664833 C560.612924,174.270605 558.423999,162.705999 556.353062,151.145785 C555.501618,146.395408 555.524511,141.458846 555.461115,136.603082 C555.334323,126.899457 555.447907,117.19232 555.41797,107.486939 C555.373065,93.2586446 552.784393,79.3825229 550.112954,65.4528289 C546.031833,44.1766944 536.837646,25.0021776 527.052642,5.99716029 C526.172141,4.28635743 525.119062,2.66337813 524.146109,1" id="Stroke-3"></path>
                    <path d="M464.818495,1 C463.708247,2.80387475 462.510093,4.56027911 461.501816,6.42041506 C453.98149,20.2852847 446.104268,33.9752172 439.114892,48.1038113 C431.957617,62.5699725 425.843781,77.5486381 418.975715,92.162485 C411.820198,107.384656 404.440521,122.505733 396.910526,137.545934 C391.157983,149.034647 385.035356,160.337874 379.023491,171.695604 C378.382659,172.906978 377.481627,174.020774 376.535762,175.025564 C370.232929,181.728558 367.049867,182.946965 358.203046,176.747684 C352.532254,172.774237 346.921239,168.434213 340.664996,165.645767 C331.228328,161.437605 321.382899,162.539094 312.029741,166.741981 C300.530807,171.909221 291.225119,179.996768 283.338227,189.652597 C275.8935,198.765153 269.320797,208.625808 261.507745,217.392006 C253.727219,226.120404 245.966032,229.543546 234.209535,221.59841 C223.012997,214.032158 212.506517,205.429468 201.193064,198.054856 C189.106042,190.174771 176.205013,183.925383 161.733991,181.180012 C149.201287,178.802976 137.829816,180.946176 128.089874,188.90362 C121.279825,194.468204 117.949082,202.520588 117.221223,211.268326 C115.606397,230.676682 122.963218,246.946718 135.00365,261.695944 C142.949439,271.43089 152.952219,278.256956 163.798014,284.122186 C169.751862,287.34226 175.885037,290.261689 181.644613,293.792959 C185.403457,296.097031 188.673546,299.212495 192.100107,302.040499 C198.587542,307.393225 198.189329,314.525211 192.845547,320.262975 C188.309617,325.132206 183.190873,329.551347 177.891043,333.594242 C171.274387,338.640168 164.444121,343.38457 159.660297,350.348652 C156.765565,354.563846 155.453134,359.345169 155.462804,364.485157 C155.483022,375.727728 155.059317,386.988759 155.583234,398.205836 C156.116822,409.662902 156.573052,421.25183 161.704103,431.941458 C165.859401,440.600408 171.633042,448.098972 177.933238,455.269637 C185.921221,464.361096 193.604172,473.726828 201.750386,482.672359 C206.233572,487.593455 211.081567,492.301815 216.326895,496.381631 C225.190419,503.273628 235.55537,499.812685 240.933436,490.290477 C245.100162,482.911469 245.99592,474.922378 247.012109,466.904278 C248.422994,455.759286 248.6788,444.391886 253.765898,434.037188 C255.325343,430.863704 256.989397,427.626048 259.215167,424.920236 C263.377498,419.862002 269.415735,419.378508 274.898408,421.292268 C282.368628,423.897864 289.513596,427.541656 296.582087,431.162592 C305.312873,435.635358 313.703464,440.774467 322.454468,445.205036 C334.97047,451.541454 345.846153,460.11865 356.58734,468.968361 C365.872811,476.619884 374.673921,484.784791 385.638389,490.371352 C401.195925,498.298028 416.182075,492.952335 423.930076,476.862511 C428.247121,467.899398 429.682619,458.000943 429.295835,448.179847 C428.607534,430.71514 423.409675,414.459169 413.575673,399.898067 C405.82064,388.41287 397.55927,377.265241 389.932578,365.696531 C380.425586,351.27872 372.977343,335.837657 369.948994,318.675354 C367.163265,302.890571 367.636197,287.417861 375.664618,272.85588 C378.911851,266.966036 382.803433,262.503819 389.853463,261.114871 C394.67157,260.164584 399.081795,261.496392 403.142155,263.041817 C420.510547,269.654266 433.0538,281.886682 441.464609,298.303525 C449.482481,313.95205 457.141697,329.829137 468.214289,343.614889 C475.919216,353.207424 484.096197,362.211853 495.548541,367.976868 C508.354631,374.423171 522.529412,371.769225 532.287814,362.42547 C542.222907,352.912053 547.034861,340.741173 550.039475,327.815162 C551.612985,321.047994 552.082401,313.985455 552.601923,307.022253 C553.171552,299.411167 553.454608,291.760523 553.440543,284.12746 C553.425599,275.383239 552.500832,266.625831 552.785646,257.900071 C553.112655,247.890851 554.322236,237.909763 555.169647,227.918125 C556.46098,212.697712 556.55416,197.587184 553.192649,182.510941 C551.08731,173.063454 549.730047,163.417296 548.606613,153.793993 C547.804914,146.915182 547.90161,139.928244 547.684483,132.987019 C547.36187,122.718471 547.7803,112.374321 546.671811,102.19456 C545.289055,89.4891989 542.865497,76.8822945 540.550942,64.295609 C536.957361,44.7553907 528.177348,27.2651899 518.519157,10.1644222 C516.77511,7.07708876 514.919422,4.05304922 513.11472,1" id="Stroke-5"></path>
                    <path d="M534.516864,1 C537.848069,8.35331601 541.06501,15.7593566 544.53245,23.0476456 C551.729257,38.1813464 556.218033,54.0953704 559.616916,70.4812791 C564.021312,91.7213605 563.971212,113.146857 563.572171,134.600472 C563.295303,149.489883 566.403255,163.74572 570.386637,177.867988 C573.39351,188.533284 576.373136,199.271516 575.961789,210.343669 C575.610211,219.811239 573.615883,229.214661 572.412607,238.654112 C571.653198,244.611106 570.515842,250.575131 570.414763,256.551457 C570.137016,272.917155 570.328626,289.290761 570.316321,305.661731 C570.304016,323.026559 566.923591,339.830749 559.73821,355.525966 C554.141084,367.753666 546.151468,378.635132 534.075634,385.527987 C521.064601,392.954239 507.563117,393.803983 493.711812,387.67124 C481.925151,382.453268 472.97221,373.787111 464.565974,364.357327 C448.381948,346.204267 437.404795,324.5626 424.035153,304.521124 C420.681975,299.495596 415.947974,294.70645 410.747252,291.736301 C399.300743,285.197579 391.262785,291.490253 388.87469,302.761003 C386.195663,315.403469 389.596304,327.220796 394.135179,338.99155 C400.692114,355.998729 411.78265,370.150875 422.221009,384.665062 C432.720015,399.261852 440.46001,415.066033 443.581147,432.635607 C446.957177,451.642804 446.259294,470.687787 438.312746,488.774063 C432.903715,501.084364 424.568673,510.663535 410.852726,513.654774 C401.507776,515.691698 392.278846,513.891155 384.310325,508.651215 C377.143402,503.937641 370.233131,498.660793 363.92318,492.8567 C352.974154,482.785433 342.571832,472.065655 330.070588,463.886322 C318.676816,456.43195 306.206335,451.358971 292.64684,449.249989 C286.224384,448.250859 278.664572,452.256167 275.147911,458.399454 C271.815828,464.220244 270.598488,470.642972 269.781069,477.141271 C267.784983,492.999056 263.787538,508.175815 255.634438,522.109154 C252.324329,527.766497 248.492126,533.455475 249.05553,540.39051 C249.342066,543.914266 250.212222,547.729766 251.982419,550.726277 C256.289253,558.020717 262.843551,563.385439 269.337201,568.699194 C280.456743,577.798572 290.365097,588.0078 297.169015,600.78032 C302.27569,610.367399 305.35991,620.718984 306.333782,631.552999 C307.392032,643.324631 307.725153,655.168321 308.970619,666.916227 C310.347048,679.902282 312.497828,692.809249 316.81433,705.208304 C323.24997,723.691771 329.196916,742.378227 336.532597,760.501409 C344.376308,779.881193 351.730446,799.667834 364.314311,816.711921 C371.170087,825.994955 378.460942,834.983611 385.94868,843.769277 C398.007814,857.920544 407.005581,873.628942 411.669266,891.686219 C412.367149,894.388351 412.542059,897.224932 412.957801,900" id="Stroke-7"></path>
                    <path d="M544.978462,1 C547.19594,6.13361282 549.21143,11.3665235 551.670415,16.3815061 C560.045018,33.4625 565.496062,51.4529922 569.145899,70.0814513 C572.383856,86.6141099 573.252405,103.327789 572.294279,120.02653 C570.967305,143.130424 575.467249,165.033077 584.149224,186.18177 C589.894469,200.175742 590.284394,214.17938 586.644217,228.681265 C584.057013,238.994185 582.12144,249.470551 579.943481,259.884527 C579.749397,260.815115 579.918013,261.821275 579.918013,262.792285 C579.918013,276.388187 580.003199,289.984968 579.897814,303.57999 C579.742371,323.655738 576.181233,343.187545 567.687194,361.353785 C560.66679,376.367098 550.48132,389.354032 535.344507,397.095752 C525.429526,402.165216 514.748746,403.725863 503.36013,401.951682 C483.761136,398.898931 469.191646,387.889168 456.432145,373.87147 C443.162405,359.293134 432.955858,342.384374 421.370523,326.522196 C419.084544,323.392116 416.170646,320.547627 413.051248,318.242685 C409.158146,315.364804 405.548707,317.411395 405.23343,322.310384 C404.803107,329.005522 406.244248,335.220866 408.82267,341.511783 C413.777527,353.600641 421.370523,363.961014 428.996013,374.284479 C440.321398,389.616775 448.485231,406.377907 451.623072,425.141693 C453.451503,436.074126 454.500085,447.350148 454.062737,458.398576 C453.384759,475.515598 450.052834,492.184462 439.79096,506.721496 C432.522023,517.016842 422.924953,523.779643 410.6028,525.68212 C399.823661,527.347337 389.453768,524.547664 380.312488,518.677665 C368.557659,511.129268 359.050167,500.963976 349.423238,490.926981 C337.36367,478.353936 324.22127,466.936436 306.605272,463.137633 C296.316174,460.918809 287.371613,461.857306 283.046433,475.924213 C280.46362,484.328505 279.333365,493.168653 277.029822,501.672243 C274.449644,511.196052 271.286335,520.561688 268.369802,529.994988 C265.434827,539.48892 267.26238,548.160349 273.408966,555.76235 C279.715386,563.562067 286.510969,570.965471 292.885889,578.711585 C304.174389,592.426117 311.498654,608.006219 313.645875,625.729573 C314.834092,635.536338 315.314472,645.427462 316.219028,655.271134 C317.589912,670.199209 319.331401,685.010411 324.013134,699.420907 C330.575113,719.622315 338.302475,739.309658 347.369107,758.505785 C353.361128,771.189552 359.159065,783.968224 364.841956,796.794347 C371.307332,811.385864 381.058966,823.752405 391.124121,835.864989 C401.930485,848.872134 411.275509,862.735173 416.752899,878.811764 C419.086301,885.658925 420.192844,892.925245 421.857051,900" id="Stroke-9"></path>
                    <path d="M558.799471,1 C564.849677,14.2523134 571.465248,27.3297571 575.325211,41.4080883 C578.472091,52.8844635 580.978869,64.5989778 582.795425,76.3574292 C584.385132,86.6457446 584.999737,97.1308984 585.335615,107.551904 C585.621375,116.413142 584.318308,125.335013 584.754422,134.178676 C585.413869,147.558407 588.532975,159.223162 597.081683,171.251937 C620,203.5 598.931652,252.192016 596.797682,259.077842 C595.300297,263.910046 594.179238,269.003236 593.896994,274.035794 C593.252495,285.530623 593.546169,297.078176 592.877929,308.570368 C591.681253,329.146999 588.121119,349.364225 579.079662,368.031348 C570.106788,386.559631 557.293294,402.041314 538.34079,411.269866 C531.773578,414.468488 524.537247,415.914019 517.171665,416.920179 C506.328599,418.402617 495.984075,416.203125 485.488318,414.381492 C482.118984,413.797129 478.409375,413.681135 475.145552,414.50188 C472.924535,415.06076 470.707035,417.305947 469.40133,419.372749 C468.076282,421.472064 467.371113,424.258556 467.266481,426.779668 C466.791679,438.286799 466.982479,449.82908 466.268518,461.316 C465.023482,481.326721 461.039543,500.607207 449.286441,517.517725 C440.217727,530.567049 428.110281,538.457276 412.222007,540.901938 C396.994059,543.245543 383.958992,538.292952 371.842754,529.951929 C361.127181,522.57313 352.909593,512.538771 344.349093,502.923572 C336.754023,494.392741 328.675359,486.49109 318.082883,481.735336 C308.935035,477.628973 302.479489,479.152713 297.811484,485.143099 C295.552659,488.04207 294.133529,491.853176 293.198873,495.474473 C290.56812,505.671399 288.439425,515.995743 286.010022,526.245394 C283.176159,538.20332 286.504168,548.647173 293.508373,558.30543 C301.10784,568.783554 309.175074,578.970814 314.74784,590.766172 C319.929334,601.735513 323.551896,613.198707 324.716919,625.309534 C325.729829,635.835989 326.371691,646.397593 327.263263,656.93635 C328.913639,676.431249 333.49108,695.21261 341.428183,713.116985 C349.684458,731.740172 358.090208,750.296574 366.393084,768.898671 C373.080755,783.883864 379.435186,799.060623 388.935618,812.563378 C395.208277,821.480856 401.742956,830.230493 408.502727,838.78505 C420.7913,854.337032 427.657461,872.266013 432.144338,891.272331 C432.810819,894.094851 432.754546,897.086969 433.031514,900" id="Stroke-11"></path>
                    <path d="M447,0 C442.141378,10.5489067 437.180746,21.0529768 432.445238,31.6563907 C425.274703,47.7175605 418.213211,63.8270835 411.192172,79.9533103 C402.546902,99.8106446 393.862059,119.618747 379.978271,136.608298 C375.466127,142.131111 369.725478,145.480668 362.852176,145.971233 C358.618799,146.272781 354.220097,144.943508 349.959459,144.039743 C337.65769,141.431308 325.917851,143.033117 314.543838,148.224491 C302.728372,153.616311 292.466785,161.172595 283.312349,170.306951 C277.61479,175.992406 272.107178,181.883583 266.196807,187.337822 C253.86426,198.720162 245.551399,201.378708 229.16575,193.207019 C221.387557,189.328215 213.613761,185.440619 205.841723,181.547748 C193.347369,175.289967 180.47136,170.012436 166.679907,167.438288 C154.582157,165.179755 142.502874,164.822821 130.872959,169.897268 C116.239052,176.281646 108.343021,187.875861 105.48149,203.205579 C102.74747,217.843407 105.976586,231.727804 111.318872,245.247355 C115.635791,256.168141 121.503072,266.276594 127.927007,276.087895 C131.681996,281.823462 135.496784,287.557271 138.707432,293.599661 C143.547588,302.711159 141.562808,306.585568 132.529727,312.289485 C126.308931,316.217522 119.657235,319.57675 113.875255,324.063046 C103.213546,332.335837 102.01494,344.507652 108.938367,355.511958 C113.006419,361.977218 118.414659,367.622233 123.395517,373.487914 C130.571328,381.938292 134.353579,391.892015 135.34465,402.665105 C137.442872,425.480775 144.747953,445.935052 160.428333,463.044167 C170.64595,474.191774 179.454787,486.442713 186.510122,499.766213 C189.608208,505.613432 191.613215,512.319579 192.690466,518.869238 C193.573372,524.244353 190.410211,530.624336 183.320579,533.754106 C174.835358,537.501039 166.122375,540.731031 157.528109,544.236198 C144.929987,549.375702 133.826825,556.805388 125.54826,567.619798 C116.117696,579.94019 107.145293,592.63334 98.4507773,605.486496 C88.6596636,619.961681 75.5391845,630.533446 60.9184682,639.621207 C54.1199143,643.847276 47.1841757,647.994221 40.9836061,653.008885 C28.557844,663.061073 21.7513756,676.405673 23.1900554,692.44926 C24.6920513,709.173308 32.9477523,722.437905 47.0892017,732.113817 C57.293628,739.096017 68.8285694,742.069298 80.4822283,744.889608 C91.3488342,747.518263 101.483789,751.312669 108.786232,760.345923 C114.086308,766.899978 117.932754,774.299773 121.302572,781.986171 C128.758908,798.995063 134.974427,816.574523 145.003855,832.393048 C155.763176,849.363258 170.264295,861.309132 190.03735,866.003787 C195.712925,867.352401 201.662868,867.641641 207.509924,868.149789 C215.550175,868.849591 223.653741,868.951572 231.654419,869.934461 C243.03195,871.332307 249.925478,878.75584 254.524681,888.611978 C256.077681,891.940435 257.071391,895.52912 258.321002,899" id="Stroke-13"></path>
                    <path d="M436,0 C432.253145,8.46708228 428.430703,16.9007569 424.775256,25.4074009 C417.091699,43.290167 409.575138,61.2441442 401.837966,79.1040525 C396.243613,92.0187487 390.707268,105.016085 381.841557,116.141713 C376.717428,122.572687 371.150321,128.824314 362.306584,129.829181 C356.948661,130.438431 351.478235,129.987428 346.085155,130.386561 C339.823697,130.848994 333.50511,131.282414 327.367581,132.510585 C316.401241,134.704061 306.889521,140.309514 297.805838,146.591032 C287.559337,153.676093 278.350846,161.991082 269.435916,170.673556 C266.268272,173.758489 262.562727,176.295713 259.073397,179.046569 C250.397534,185.885468 240.934155,185.734255 231.192157,181.946002 C214.236827,175.353265 197.476617,168.218973 180.341986,162.137021 C170.134158,158.514928 159.280321,156.514864 148.34738,157.059937 C122.729371,158.338219 102.194181,170.826528 96.3598807,200.713192 C94.4860139,210.309981 95.5670909,219.905011 97.5253345,229.441138 C100.464458,243.745769 106.712731,256.83102 112.039013,270.275842 C114.100091,275.476887 115.782352,280.982996 116.551411,286.502292 C117.492739,293.253276 113.543732,298.224863 108.848518,302.774458 C103.213733,308.23573 97.5508233,313.767335 92.6965238,319.900277 C88.939122,324.64768 87.7446637,330.702378 87.0643763,336.855541 C85.3891463,352.016462 91.8720927,363.767165 101.699346,374.358271 C105.978829,378.970286 110.161631,383.680765 114.181831,388.5196 C120.772006,396.453919 122.734644,406.352255 124.468762,416.006188 C127.723419,434.121929 135.243496,449.982653 146.607989,464.337395 C153.51194,473.056793 160.24538,482.005648 166.033976,491.47584 C169.155915,496.584573 170.960347,502.882795 171.852455,508.86892 C172.860582,515.641882 168.857081,520.843806 163.324252,524.65052 C160.027406,526.919603 156.882615,529.550896 153.302756,531.244136 C136.993435,538.961305 124.256941,550.654863 114.210835,565.468521 C107.534526,575.31235 100.567292,584.977712 94.298803,595.074736 C84.1735939,611.382068 70.569602,623.676964 53.9043165,633.024954 C46.0722211,637.418939 38.2234262,642.189201 31.5075649,648.074223 C19.9321305,658.216084 13.1107983,671.081548 13.0018117,687.053923 C12.8251478,712.834963 25.5783409,730.523437 47.1893341,742.843828 C55.9961565,747.863768 65.7662802,750.129335 75.4986101,752.402813 C88.0619554,755.336533 99.6558472,760.249217 106.55013,771.680789 C111.687443,780.199741 115.562621,789.518718 119.566122,798.671537 C126.523687,814.581493 132.836122,830.755194 143.299717,844.903336 C155.705735,861.681891 171.911343,872.15607 192.479053,875.633104 C200.755884,877.032708 209.135549,877.809876 217.444901,879.03453 C229.894865,880.869314 238.939876,887.360949 244.090373,899" id="Stroke-15"></path>
                    <path d="M423,0 C420.224348,6.80109527 417.508463,13.6276859 414.662496,20.3988901 C407.481661,37.4860265 400.251606,54.5520634 393.024187,71.6189794 C388.431793,82.4597635 383.686465,93.2407655 375.519473,101.996209 C370.140438,107.763425 363.592431,111.265075 355.564309,112.052792 C340.436214,113.538553 325.459294,115.332896 311.785824,123.140617 C300.697278,129.473126 290.460413,136.857097 280.625217,144.902188 C273.981406,150.336206 267.385058,155.832645 260.627865,161.121604 C251.091505,168.584699 240.574262,169.271314 229.418039,165.326573 C218.206443,161.362491 207.054615,157.173347 195.674265,153.752579 C184.257879,150.320382 172.731628,147.342705 160.750971,146.019586 C144.435445,144.21821 129.009394,145.895626 114.517642,154.048852 C99.202335,162.667148 90.5431441,175.913283 86.5651195,192.774478 C84.4741516,201.632782 84.2254152,210.644057 85.2203608,219.412688 C86.3691187,229.528174 89.3223142,239.448489 91.6611395,249.41452 C93.4585456,257.082456 95.9212997,264.615882 97.318794,272.348875 C98.2636407,277.575415 96.6051051,282.86877 93.63521,287.260119 C89.3636237,293.575924 84.3598911,299.392372 80.0206274,305.665978 C73.2124572,315.508928 70.2882664,326.505322 69.8619867,338.525924 C69.2282802,356.345391 75.4862419,371.207402 87.0089777,384.372655 C92.3994383,390.531972 97.6914591,396.846019 102.356805,403.556562 C107.609274,411.110208 109.527093,420.163683 112.025004,428.890114 C116.109379,443.160458 122.713638,456.124386 131.532794,468.075535 C136.462696,474.757066 141.476097,481.547612 145.171986,488.929825 C151.432585,501.434837 148.992683,509.421025 138.603763,517.911845 C122.452597,531.114022 110.179257,547.307064 99.455466,564.997297 C92.137518,577.069769 84.3387968,588.888166 76.1190695,600.364575 C69.8558342,609.10771 60.8951712,615.000644 51.6971979,620.478621 C42.2707035,626.091986 32.5691049,631.431057 23.8958512,638.075664 C11.182169,647.813995 3.19096277,660.783198 0.81610143,677.050968 C-2.4016511,699.086833 4.01715435,718.040403 17.9279354,734.956105 C31.6945724,751.695978 50.5510768,758.730048 70.8138649,763.27173 C80.8564872,765.522351 90.5396283,768.904437 96.9276713,777.498996 C101.019078,783.003346 104.464472,789.12486 107.353506,795.362421 C113.908545,809.514079 119.349105,824.204656 126.329545,838.132131 C135.6242,856.677776 149.137706,871.517808 168.218337,880.702276 C178.401587,885.60353 189.353899,887.645793 200.284238,889.837511 C208.600648,891.504377 217.00495,892.942665 223.596025,899" id="Stroke-17"></path>
                    <path d="M391,900 C387.756361,886.378832 381.445673,874.428756 371.876411,864.15681 C359.801499,851.195284 345.123417,841.593534 330.686939,831.647012 C326.372337,828.675104 322.190397,825.470124 318.211404,822.061973 C311.122313,815.988869 308.873203,807.556005 307.817175,798.766934 C306.534479,788.096564 305.647135,777.377821 304.422424,766.698656 C303.146756,755.577971 301.965095,744.432659 300.201827,733.384094 C298.509723,722.768255 295.938181,712.296657 294.101994,701.701047 C292.571544,692.862723 291.280063,683.964592 290.368119,675.043593 C289.248835,664.103209 288.87369,653.086308 287.740349,642.147683 C286.411968,629.32864 283.374791,617.0549 274.929205,606.710833 C266.036433,595.818824 254.656461,589.464272 240.771718,588.082542 C232.640656,587.27514 224.405925,587.063175 216.232692,587.255791 C207.894291,587.452804 200.00044,585.552155 192.575739,582.418416 C183.258623,578.483431 173.809724,576.235371 163.80821,577.238027 C156.106764,578.010248 149.167028,581.165096 142.992517,585.902205 C132.247743,594.144213 124.625367,605.121536 116.786865,615.901846 C105.84793,630.947841 92.9665007,643.787993 76.9178672,653.531346 C69.6126508,657.966779 62.8038202,663.472591 56.5309104,669.313502 C42.4660627,682.407836 44.4498484,703.635997 59.3071562,715.103214 C67.4074683,721.355741 76.82474,723.868538 86.3957594,726.312731 C91.8401883,727.705016 97.4357292,728.827287 102.587598,730.975961 C114.221474,735.828288 121.492426,745.281398 126.713701,756.307095 C134.954582,773.709332 142.556752,791.420281 151.014637,808.714336 C155.923145,818.75057 162.268097,827.878257 171.232032,835.086825 C185.983913,846.950707 202.14588,848.905886 219.536073,842.860926 C228.823318,839.633078 237.873352,835.720081 247.021785,832.094689 C255.585098,828.70149 264.245052,825.860632 273.656173,826.249381 C288.970332,826.882637 293.566073,833.560853 295.125515,845.866256 C296.484645,856.594674 296.435446,867.506033 296.94501,878.338235 C297.285012,885.556478 297.512559,892.779118 297.789305,900" id="Stroke-19"></path>
                    <path d="M405,900 C404.155117,892.684823 401.64948,885.912391 398.833496,879.134681 C392.974701,865.030359 383.672195,853.429523 373.341937,842.514815 C359.071236,827.437599 345.881916,811.508881 338.065208,792.048365 C330.897328,774.19761 324.003749,756.184999 318.15023,737.871548 C312.464632,720.082368 308.046799,701.873595 303.522586,683.735194 C302.153717,678.244413 302.327792,672.373623 301.722044,666.685801 C300.246795,652.806669 300.702206,638.773599 297.64357,625.004424 C293.260025,605.277373 283.094172,589.48676 266.272997,578.455059 C252.424298,569.372664 238.227447,560.766159 223.765087,552.7024 C217.606495,549.267363 210.387623,548.26808 203.027205,549.515425 C198.393096,550.301833 193.58491,549.986038 188.88838,550.476004 C172.639544,552.17373 156.51643,554.181093 142.629048,564.144898 C132.75508,571.229607 125.007827,580.193249 118.09139,590.020709 C111.727072,599.063519 105.589581,608.280501 98.8771114,617.056778 C89.5825174,629.207396 77.5352395,638.185992 64.4136148,645.911966 C54.3840339,651.817942 44.7878842,658.339673 38.1176151,668.333387 C28.5504781,682.668177 28.9707218,697.094452 37.324603,711.674665 C44.6929338,724.534281 56.5388816,731.320788 70.2205381,735.389173 C77.5106227,737.557512 85.000279,739.066993 92.2604718,741.31802 C104.653264,745.160335 113.390464,753.466878 118.873852,765.036046 C124.807376,777.559636 130.134272,790.369112 136.046696,802.902377 C142.994783,817.63477 149.976279,832.370682 162.209941,843.781513 C171.573989,852.516446 182.34559,858.385477 195.141922,859.458651 C203.274252,860.14038 211.511204,859.478003 219.698042,859.617867 C227.612338,859.752454 235.620705,859.465688 243.406642,860.603956 C251.712169,861.817874 257.70196,867.113372 261.788346,874.566654 C266.163979,882.545967 268.658187,891.084738 270.084202,900" id="Stroke-21"></path>
                    <path d="M398,899 C395.410649,888.567124 391.961408,878.437274 385.845365,869.50723 C382.16817,864.136205 378.188209,858.887269 373.746178,854.14074 C366.239524,846.118897 358.363215,838.431699 350.455221,830.796324 C334.185085,815.087282 324.836313,795.529373 318.850529,774.181414 C314.402338,758.311637 310.272754,742.347 306.344721,726.34196 C302.752018,711.706245 299.311579,697.016952 296.421223,682.231042 C295.069338,675.314146 295.266488,668.104763 294.598467,661.042941 C293.304672,647.388328 293.618879,633.578249 289.277184,620.246864 C283.035281,601.083327 270.261033,588.451976 252.138216,580.24656 C237.054499,573.41574 220.940146,570.810595 204.982456,567.486971 C194.422622,565.287618 183.785336,563.722423 172.891931,564.041259 C159.466384,564.433875 147.972728,569.20324 137.867042,577.827622 C126.348743,587.658838 118.125662,600.183911 109.581332,612.402444 C98.596393,628.111485 84.741341,640.54609 68.2731745,650.244677 C60.6353812,654.742636 53.3848465,659.771988 47.4087442,666.441194 C41.2363722,673.328228 37.6841558,681.539792 38.0221269,690.570844 C38.4428304,701.791587 43.4824713,711.166947 52.3726937,718.508958 C61.3113233,725.890495 71.9767737,728.734547 82.8455348,731.372191 C90.3521882,733.195616 97.8209959,734.94614 104.579536,739.16918 C115.459739,745.96838 121.008977,756.598882 126.177117,767.553489 C134.622873,785.456614 140.881498,804.39354 151.638482,821.203137 C160.789223,835.503327 172.277598,846.852307 189.570449,850.73631 C200.469135,853.183354 211.272766,852.035369 222.09136,849.948442 C230.774751,848.274334 239.337564,846.034577 248.346604,846.074102 C261.028439,846.129437 270.136934,853.967708 274.220751,863.209561 C278.334492,872.519045 280.265503,882.308101 281.286457,892.343091 C281.511771,894.567038 281.83478,896.781323 282.112022,899" id="Stroke-23"></path>
                    <path d="M383,899.581496 C378.211877,884.005894 369.448809,871.277712 355.324598,862.909391 C350.219504,859.883622 344.420428,857.303728 338.63283,856.327218 C329.833562,854.842146 323.635402,858.316438 319.633086,868.711945 C317.051402,875.416843 316.23999,882.828961 314.893524,889.973554 C314.275474,893.25537 314.278123,896.654614 314,900" id="Stroke-25"></path>
                    <path d="M372,899 C368.545339,890.445117 363.38314,883.342431 354.497966,879.445245 C348.076888,876.629464 340.981064,877.957776 337.514966,883.171231 C334.377004,887.890009 332.233126,893.189494 332,899" id="Stroke-27"></path>
                    <path d="M486.125563,13.0914074 C477.501069,16.1877489 471.917511,22.8770067 466.540848,29.7525899 C455.363166,44.0433968 447.149824,60.0401359 439.357317,76.3339409 C429.340896,97.2762132 418.511856,117.834409 408.667995,138.854024 C400.051425,157.249263 393.601543,176.435506 390.581738,196.660602 C389.440727,204.298186 388.163252,211.811845 389.72686,219.578626 C390.825611,225.040949 393.289878,229.620863 396.891634,233.714748 C403.151347,240.82939 411.216781,245.587719 418.940616,250.856685 C427.634662,256.787458 436.235385,262.924771 444.343958,269.615786 C452.235071,276.127508 456.736606,285.328643 460.575192,294.540325 C466.443123,308.619318 472.358596,322.626243 482.875971,333.959573 C486.93466,338.333826 491.484617,342.674681 496.643818,345.525811 C509.784814,352.784591 521.261835,348.340906 528.59917,335.255062 C533.775099,326.023166 536.070327,315.857885 536.565998,305.315558 C536.925205,297.687642 537.399746,290.051816 537.358366,282.421264 C537.284412,268.822146 536.471794,255.217755 536.711265,241.628305 C536.887347,231.626497 538.614711,221.658088 538.958071,211.650129 C539.194901,204.734996 538.377,197.768007 537.79505,190.844085 C537.28089,184.723471 536.537824,178.61692 535.729608,172.527067 C533.783022,157.865368 534.541936,143.110505 533.966148,128.403981 C533.08926,106.019445 529.549132,83.9372479 524.027202,62.2233071 C519.899841,45.9980558 513.390972,30.9276704 501.149755,18.9061662 C497.066415,14.8948967 492.426656,12.4911232 486.542877,13.0914074" id="Stroke-29"></path>
                    <path d="M485.736988,30.0265996 C475.613455,32.8848185 469.186442,40.1957027 463.255164,48.3244772 C452.47533,63.0992702 444.977001,79.6769398 436.673212,95.8263162 C430.853365,107.143984 424.605343,118.240908 418.871482,129.60079 C409.813122,147.546886 402.549062,166.102443 399.6115,186.213751 C398.247131,195.55441 397.108255,204.872204 398.990295,214.115244 C401.323323,225.582418 408.246072,234.135089 418.009868,240.362488 C426.408417,245.71923 434.78503,251.12698 443.373977,256.164481 C458.386427,264.969554 467.449174,278.03821 472.551301,294.494515 C475.348478,303.519451 479.031837,312.304297 484.892044,319.948494 C489.275574,325.66757 493.94514,330.954835 501.109176,333.280985 C506.807063,335.131352 512.515479,333.340788 516.518214,328.710474 C521.830042,322.567502 524.233262,315.102713 525.0396,307.423339 C526.051252,297.781907 526.088103,287.998883 525.955614,278.285336 C525.830145,269.115291 524.383299,259.947004 524.535968,250.795427 C524.700921,240.926217 526.337287,231.090426 526.792662,221.21418 C527.201534,212.347546 526.879525,203.445733 526.879525,194.55975 C526.879525,194.004816 526.886544,193.449002 526.87777,192.893189 C526.602264,176.509878 526.144257,160.126567 526.095122,143.741498 C526.039845,125.160437 523.889319,106.84409 519.766379,88.7695937 C517.251727,77.7421454 514.765153,66.663689 511.347649,55.9009559 C508.581182,47.1864663 504.331018,39.0620891 496.597544,33.2840897 C493.360786,30.8664762 490.038042,29.8146516 486.15288,30.0265996" id="Stroke-31"></path>
                    <path d="M482.74875,48.1344169 C475.098061,50.0393616 469.928628,55.5607113 465.871817,61.5657727 C457.755563,73.5811723 450.233758,86.0257562 442.952189,98.5776361 C434.759656,112.702898 426.697762,126.934577 419.339036,141.505734 C413.284944,153.490352 409.216734,166.312231 407.603479,179.766453 C406.938887,185.307151 406.05072,190.868957 406.002498,196.427244 C405.839419,214.849626 413.658448,228.73655 430.457349,236.763527 C440.245602,241.441459 450.335464,245.493204 460.332388,249.727881 C467.514006,252.770867 474.537805,256.096166 480.657655,261.009797 C488.752867,267.509124 491.728622,276.736585 494.041539,286.381797 C494.771011,289.422146 496.142279,292.422917 497.771316,295.104439 C500.215749,299.128921 502.777669,298.924003 504.694287,294.703398 C505.369399,293.218843 505.582454,291.393931 505.541246,289.735239 C505.381674,283.344967 505.073928,276.958213 504.7504,270.573218 C504.082302,257.395152 506.96512,244.659461 509.264009,231.822631 C511.094703,221.603121 512.62905,211.314133 513.820579,200.999639 C514.988436,190.903256 515.635492,180.742671 516.362334,170.598796 C517.027802,161.303616 517.787084,152.00052 517.973836,142.690388 C518.213194,130.737431 516.807732,118.890011 513.861787,107.293242 C510.538832,94.2057614 507.16853,81.1235575 503.401052,68.1609624 C502.170945,63.9280449 499.699332,60.0433999 497.683639,56.0567357 C494.674567,50.1035634 489.868117,47.3367322 483.164339,48.1344169" id="Stroke-33"></path>
                    <path d="M477.602962,73.0857791 C470.208991,74.9220584 465.764142,80.8106044 461.463045,86.0835496 C447.563191,103.125695 434.950933,121.176302 425.118468,140.858866 C419.09411,152.918328 414.909426,165.733698 413.546868,179.398808 C412.804296,186.850033 412.669363,194.097811 414.09101,201.430651 C416.540086,214.057483 424.281531,222.575048 435.889289,227.030699 C449.768859,232.358891 463.927114,233.028861 477.158477,224.643712 C485.728922,219.212043 490.791993,210.774279 494.63273,201.800713 C499.821033,189.674605 503.930755,177.139851 506.005017,164.045619 C507.751208,153.020928 508.675454,142.062006 507.419608,130.800545 C505.584344,114.355586 499.244261,99.5346899 492.593744,84.7365941 C491.532801,82.3741603 489.885385,80.2660345 488.456683,78.073724 C486.004961,74.3143499 482.546974,72.5806708 478.020989,73.0857791" id="Stroke-35"></path>
                    <path d="M469.924533,101.065732 C464.840003,102.450137 460.748587,105.43471 456.981452,108.98555 C442.105898,123.005733 431.236284,139.537571 424.788536,159.02492 C421.022283,170.410154 420.045031,181.895783 421.942257,193.663226 C423.388307,202.630154 432.059325,212.507689 439.882628,213.625253 C449.757366,215.035197 458.625773,212.477747 466.170616,205.763559 C479.669735,193.752173 488.282593,178.510508 493.094832,161.489901 C498.133539,143.673173 497.167743,126.081894 485.819636,110.216719 C481.946758,104.800631 477.701132,100.406114 470.342222,101.065732" id="Stroke-37"></path>
                    <path d="M464.586853,125 C452.318589,127.999833 445.690916,137.39354 439.85221,147.395606 C434.826908,156.00614 431.883118,165.424321 432.003558,175.506802 C432.057668,180.010047 433.227155,184.323618 435.587947,188.377588 C439.709951,195.456739 448.551794,195.036308 454.208095,191.581081 C464.998791,184.988791 471.659629,174.899318 476.578455,163.5031 C479.613011,156.474645 480.298121,149.114041 479.89491,141.559392 C479.433224,132.893791 473.647756,126.402894 465.000537,125" id="Stroke-39"></path>
                    <path d="M315.177002,216 C306.252948,218.48699 303.109096,225.386664 301.242906,233.36092 C298.834489,243.645834 299.690123,253.379053 305.902147,262.304808 C306.584161,263.28424 307.171797,264.37279 308.030102,265.178508 C313.854821,270.656172 318.303047,270.256368 322.687168,263.906643 C331.662862,250.908649 332.172147,237.161677 325.334201,223.012282 C323.321102,218.847512 320.145197,216.600579 315.599031,216" id="Stroke-41"></path>
                    <path d="M214.237467,350 C209.644072,351.393407 204.837319,352.311166 200.497839,354.268466 C187.504969,360.131539 181.624367,371.19584 179.618614,384.696616 C178.817194,390.094632 177.805061,395.58619 178.032526,400.986853 C178.71845,417.289445 184.3037,431.22351 199.215039,439.84604 C209.912975,446.031211 216.528874,442.69286 221.248344,433.547913 C229.505874,417.548888 236.134116,400.809478 239.157292,382.996113 C241.247684,370.677835 240.083024,361.41199 228.318292,353.948132 C224.4743,351.509891 219.248763,351.253978 214.655369,350" id="Stroke-43"></path>
                    <path d="M326.72604,353.008571 C317.945897,355.965009 314.943989,363.617174 313.142844,371.421042 C309.376415,387.744955 315.037031,400.820491 328.389378,410.657351 C341.105356,420.024991 354.972943,427.287316 369.575208,433.142863 C371.583502,433.948122 373.982395,434.008097 376.197839,433.999277 C380.28728,433.983401 382.48078,431.456493 382.891567,427.371105 C383.507748,421.242141 381.421334,415.668831 378.573033,410.726146 C367.953124,392.296917 355.726931,374.973707 340.810431,359.742582 C337.144944,355.999407 332.885218,352.812768 327.142094,353.008571" id="Stroke-45"></path>
                    <path d="M208.334778,378 C199.801041,381.722541 195.689771,391.926971 199.327328,400.35535 C201.570546,405.550651 206.018083,406.625721 209.493126,402.365645 C213.829149,397.049727 216.058536,390.906965 214.506869,383.789648 C213.791114,380.509372 212.026795,378.545402 208.744522,378" id="Stroke-47"></path>
                    <path d="M332.660856,380.008761 C326.966454,383.942355 326.407205,390.87392 331.439569,396.78685 C335.601701,401.678549 340.765602,405.04489 347.094168,406.65845 C352.161376,407.951201 355.066505,405.504054 353.635283,400.505994 C351.925307,394.533399 348.265802,389.59414 343.765682,385.369137 C340.790864,382.575238 337.635727,379.824576 333.073759,380.008761" id="Stroke-49"></path>
                    <path d="M316.167724,201.003144 C305.0439,204.083268 299.052326,212.392829 294.541529,222.250811 C289.990355,232.20029 288.324371,242.71723 289.243383,253.498105 C290.012299,262.514133 292.488454,271.230155 296.65517,279.328568 C300.689344,287.170084 304.800761,294.979928 309.13864,302.655165 C313.889065,311.062382 314.384998,319.892776 311.950976,328.913203 C309.158828,339.261224 305.57231,349.399857 302.966248,359.790108 C300.64019,369.067431 299.713278,378.499597 301.954193,388.118278 C304.502324,399.055754 310.306058,407.868552 319.1679,414.225872 C329.030386,421.302856 339.536268,427.491258 349.859577,433.909283 C357.673376,438.768331 365.473131,443.70392 373.616967,447.955917 C377.175397,449.814021 381.533464,450.387641 385.608893,450.922549 C389.433284,451.424906 392.300918,449.447151 394.36716,446.045906 C397.792171,440.409129 397.347147,434.538329 395.991012,428.518846 C393.273474,416.458765 386.7886,406.237432 379.705973,396.485025 C364.128406,375.036767 348.744824,353.478536 335.26861,330.609427 C331.641715,324.455336 328.080652,318.04083 327.656695,310.994639 C327.318758,305.379856 328.960165,299.525773 330.382133,293.947061 C333.160236,283.043896 336.911772,272.372114 339.332628,261.398567 C343.182474,243.942769 341.673608,226.868798 332.727501,211.043241 C329.288446,204.959533 324.116698,200.870296 316.583781,201.003144" id="Stroke-51"></path>
                    <path d="M155.148258,201 C151.553776,202.388455 147.483707,203.114777 144.458527,205.299021 C137.637418,210.223242 136.097676,217.885682 137.444731,225.548122 C140.762446,244.425476 154.729603,256.481025 171.773616,259.980739 C177.375543,261.130896 183.526628,261.37359 189.131182,260.368521 C203.171035,257.850134 207.250738,247.10478 201.443862,234.813572 C194.09812,219.261826 182.26453,207.960738 165.499037,202.728753 C162.317079,201.735116 158.882001,201.555734 155.56341,201" id="Stroke-53"></path>
                    <path d="M153.06452,193 C148.665402,194.250087 144.069401,194.515895 140.08954,197.477505 C134.332454,201.764647 130.894902,207.286085 130.240967,214.197093 C128.345084,234.219543 137.780553,248.653006 153.465318,259.91695 C162.714452,266.560396 173.190592,269.557096 184.280235,271.15984 C192.006157,272.275707 199.579143,272.538006 207.195198,270.323816 C218.412288,267.063063 222.530143,258.893194 220.502418,248.261751 C218.874613,239.729576 214.453522,232.534337 209.226439,225.854047 C199.696043,213.67425 187.799529,204.273594 173.846284,197.641552 C167.487999,194.620288 160.597074,193.113166 153.481139,193" id="Stroke-55"></path>
                    <path d="M157.577302,590 C144.178497,593.046359 135.55758,602.53299 127.215806,612.437388 C120.0617,620.934018 112.943585,629.46751 105.57354,637.774566 C96.980713,647.459548 86.0037698,654.129767 75.2796342,661.117699 C68.725947,665.387517 62.539182,670.252389 58.2598859,676.91032 C50.4386492,689.079959 54.0613477,700.916965 63.6496045,709.263515 C70.7440192,715.439612 79.6519776,718.104189 88.5853923,719.542674 C106.775254,722.470549 119.890528,731.685983 127.622229,748.38786 C132.858332,759.700025 137.798615,771.148227 143.050518,782.453371 C150.05803,797.535965 156.736365,812.794968 168.771941,824.89615 C184.86385,841.074941 205.294746,841.457601 223.576777,830.507033 C231.283021,825.891417 237.97189,819.501171 244.850365,813.599783 C254.831878,805.034695 264.571995,796.189634 274.404281,787.451647 C284.120697,778.816346 289.24883,767.904394 290.17228,755.026484 C290.637517,748.527408 291.209845,741.98445 290.922803,735.495907 C290.555003,727.162521 289.56484,718.839668 288.48953,710.556309 C287.333461,701.659466 285.524306,692.844245 284.450752,683.937747 C283.319262,674.552047 282.909327,665.079458 281.841039,655.684981 C280.544522,644.295583 280.082797,632.785944 275.315442,621.974046 C269.706272,609.251481 255.698271,598.777482 241.974678,598.908253 C232.03091,599.004796 223.15982,601.990596 214.609128,605.953233 C203.716454,611.001536 194.705792,608.979406 186.252536,601.236686 C181.364922,596.757985 176.156031,592.549603 169.605855,590.946118 C165.881331,590.033351 161.874154,590.276463 157.993381,590" id="Stroke-57"></path>
                    <path d="M155.367332,606 C147.216364,606.410931 141.192156,610.995413 135.844924,616.467752 C129.527945,622.930022 123.938936,630.135841 117.381939,636.326211 C109.441097,643.822409 100.942849,650.749288 92.4498762,657.632169 C85.1394135,663.555917 77.2170347,668.749316 70.1377988,674.922966 C67.2355935,677.45367 65.1677392,681.48555 63.8964308,685.234089 C61.3291968,692.805963 64.3870187,699.558613 71.6473676,705.217499 C77.6953139,709.929572 84.9398374,711.354192 92.0770998,713.092072 C102.905201,715.728368 113.323599,719.090614 120.804625,728.112627 C126.32154,734.766724 130.22778,742.354436 133.724318,750.198211 C142.605014,770.126185 149.807336,790.861943 162.407004,808.993961 C167.474654,816.286894 173.346762,822.649732 181.204081,826.852319 C193.819575,833.60057 206.203842,831.789656 217.270203,823.772534 C223.211767,819.468753 228.62318,813.748271 232.635802,807.596619 C242.655928,792.235527 253.865597,778.032435 267.354126,765.59098 C275.576308,758.007668 279.776198,748.349459 281.164438,737.286869 C282.567625,726.104607 282.135943,715.051695 280.374926,703.927509 C278.866236,694.405691 278.227066,684.747483 276.923227,675.188708 C275.124405,662.006345 275.467289,648.574959 272.011194,635.577383 C269.821132,627.339396 265.943906,620.394039 259.075675,615.141684 C250.553689,608.623977 239.476777,609.140502 229.528745,615.232318 C222.11278,619.771922 215.306093,625.335775 207.773195,629.647475 C197.628225,635.454191 187.361926,634.653447 178.216594,623.129769 C174.374535,618.289225 170.111344,613.747861 165.714516,609.398324 C163.103323,606.816583 159.415122,606.208545 155.784068,606" id="Stroke-59"></path>
                    <path d="M244.271149,625.026162 C234.471616,627.637439 227.542581,634.819331 219.633505,640.45331 C213.522347,644.805438 207.212007,648.614872 199.621092,650.138998 C189.105035,652.248987 179.606917,650.539852 171.251005,643.76498 C167.587307,640.793375 164.167738,637.501969 160.803692,634.186775 C152.702486,626.203175 145.295769,626.518572 136.649899,632.643267 C129.735847,637.540732 123.594724,643.513015 116.931852,648.78138 C106.583248,656.959681 96.0592588,664.914208 85.6674696,673.037887 C83.5804747,674.669494 81.5807317,676.478182 79.8321684,678.462189 C71.7159792,687.673018 73.9316486,697.741058 85.6665883,702.168952 C91.2577604,704.278941 97.0701469,705.798662 102.760028,707.654043 C113.945017,711.302254 122.795355,717.976692 128.158263,728.543377 C132.521739,737.140151 136.481565,745.955413 140.292446,754.813843 C148.334603,773.517422 155.850605,792.478251 168.719819,808.622532 C173.401456,814.495262 179.034051,819.19186 186.260095,821.52386 C196.21298,824.735977 205.114437,822.661228 212.977683,815.735706 C220.227523,809.349355 224.768147,801.075907 229.21535,792.754885 C234.154336,783.514101 239.794863,774.848609 247.141649,767.265863 C253.511037,760.690097 259.873375,754.020064 265.441633,746.779145 C271.544859,738.844881 273.78168,729.387372 273.972048,719.330785 C274.219702,706.250614 272.798113,693.381882 270.644137,680.511389 C268.884998,670.001969 268.07241,659.333088 266.30005,648.827192 C264.991272,641.069128 262.810856,633.570076 256.018428,628.287615 C252.526589,625.573261 248.828519,624.844676 244.688901,625.026162" id="Stroke-61"></path>
                    <path d="M242.742582,645.051389 C233.550006,647.087238 226.330858,653.12546 218.149686,657.201545 C208.331045,662.092847 198.199371,665.459895 187.200906,664.910567 C177.168874,664.409502 167.726753,661.246916 158.803121,656.67591 C152.757625,653.580015 146.720064,650.087482 139.607612,651.796893 C135.442956,652.797267 131.016411,654.038081 127.56688,656.408266 C117.718259,663.173075 107.96487,670.090573 99.8048604,679.038655 C95.7001658,683.540337 95.9453012,689.954138 101.571951,692.860488 C103.563015,693.888943 105.428865,695.159593 107.434037,696.157334 C120.680164,702.75717 129.131161,713.534883 134.566465,726.931996 C140.857097,742.43867 146.58427,758.197192 153.543292,773.400243 C158.416901,784.047205 164.425362,794.389668 172.699121,802.871786 C178.096508,808.405433 184.488545,813.067702 193.043592,812.999256 C198.061813,812.95889 202.263504,811.061689 205.974923,807.958775 C212.038937,802.889336 215.794446,796.161383 219.376244,789.284251 C227.116525,774.4208 236.472231,760.755165 248.516489,748.884061 C257.097108,740.427391 263.888592,730.582483 265.193629,718.191009 C265.902582,711.462178 266.418424,704.512212 265.526061,697.860603 C263.969716,686.272938 261.446057,674.796718 258.930333,663.359987 C258.017689,659.208435 256.409319,655.056006 254.317732,651.352867 C252.023336,647.292577 248.337487,644.588935 243.160546,645.051389" id="Stroke-63"></path>
                    <path d="M234.248948,668.065408 C224.507941,670.705003 214.843615,673.684226 205.003894,675.883008 C196.086977,677.875902 186.992903,677.857425 177.882083,676.466359 C171.952162,675.560978 165.934983,675.111367 159.938959,674.788456 C154.943299,674.520097 149.844519,674.169911 144.930828,674.854446 C135.585561,676.154887 128.299196,682.828662 131.968379,694.737634 C135.048801,704.733779 137.93003,714.794155 141.199067,724.72695 C145.195242,736.870846 149.006327,749.114166 153.813371,760.94395 C159.159819,774.101451 165.882101,786.582335 176.616422,796.445621 C186.613029,805.63141 197.83299,805.389448 205.777745,794.276753 C210.411157,787.796548 214.311262,780.781385 218.363845,773.903481 C225.470408,761.837893 234.010975,750.838702 243.005453,740.152742 C249.102837,732.907934 254.131107,725.044581 255.935291,715.569316 C258.73279,700.88437 255.945868,687.14264 248.418887,674.330047 C245.355211,669.113327 240.393926,667.654511 234.666722,668.065408" id="Stroke-65"></path>
                    <path d="M222.434899,687 C221.601718,687.277527 220.773816,687.778129 219.934477,687.798329 C207.156106,688.124159 194.35046,688.976939 181.609041,688.412225 C175.341269,688.134698 169.318964,688.460529 163.268505,689.531115 C152.571766,691.422864 147.101103,698.152011 147.003444,709.046695 C146.866194,724.279932 150.846457,738.657753 156.212423,752.710622 C159.94722,762.488173 164.647169,771.750192 171.558082,779.794956 C175.090523,783.908677 178.873709,787.669341 184.116501,789.267755 C191.670556,791.570525 197.46675,788.230542 201.529716,782.210142 C208.998429,771.145078 216.049233,759.797217 223.2672,748.563528 C227.719043,741.635019 232.105779,734.663475 236.617449,727.774486 C241.522394,720.284775 243.716642,712.085438 242.79372,703.229171 C242.103069,696.609805 237.2166,687.779885 227.851894,687.792181 C226.186412,687.794816 224.518291,687.277527 222.851929,687" id="Stroke-67"></path>
                    <path d="M174.889821,700.054139 C171.139499,701.584212 166.887728,702.436896 163.738267,704.777371 C155.963146,710.556768 155.48105,719.427143 156.276333,727.995379 C157.271316,738.714703 160.362714,748.985663 165.707999,758.472648 C168.868017,764.082037 172.431834,769.192852 177.74105,773.154131 C183.447908,777.412263 190.562346,776.818556 195.771273,771.865416 C201.247639,766.658585 205.031391,760.346261 208.625119,753.86569 C213.502384,745.069309 217.813098,736.052709 220.805086,726.364005 C225.010232,712.746615 217.53862,706.18148 207.416359,703.302793 C196.845432,700.295498 186.141665,699.811899 175.306816,700.054139" id="Stroke-69"></path>
                    <path d="M181.364889,713 C178.192336,714.260665 174.52874,714.879908 171.951204,716.917731 C166.900982,720.909098 165.511734,726.979097 166.141701,733.159993 C167.045149,742.036103 169.842867,750.066743 176.256999,756.838492 C180.106702,760.901719 187.740576,761.109316 191.697749,757.107304 C197.676758,751.062145 201.060756,743.767854 202.574075,735.289195 C203.865464,728.054344 202.316322,722.028703 196.605551,717.717956 C192.353928,714.509072 187.125462,713.276796 181.779042,713" id="Stroke-71"></path>
                    <path d="M317.886885,190.050138 C300.953541,194.47746 292.738119,207.459939 286.142155,222.075108 C281.897358,231.483936 279.741019,241.403035 279.10452,251.618108 C278.334903,263.973507 281.924687,275.632444 286.279681,286.924267 C289.865939,296.221556 293.635565,305.387105 295.351115,315.257021 C296.677008,322.893515 296.339364,330.509809 295.343181,338.138399 C293.697275,350.742346 290.202701,363.091598 290.689332,375.994155 C291.179489,388.985416 295.610299,400.170091 304.502773,409.707146 C312.003236,417.750275 321.165472,423.502018 330.385893,429.280108 C343.161717,437.287229 355.710094,445.651802 368.432141,453.745871 C372.048373,456.046041 375.994314,457.827158 379.666085,460.047406 C384.095131,462.726107 388.900611,463.237256 393.87888,462.914055 C398.948834,462.584707 404.544207,457.007739 405.945034,450.441847 C408.490149,438.513283 406.267692,427.245173 401.025831,416.318707 C394.494222,402.707392 384.90442,391.155603 376.345182,378.902082 C364.606094,362.095648 353.373031,345.046813 347.05829,325.260433 C343.388282,313.763096 342.209613,302.173542 344.216084,290.3047 C345.907831,280.301289 347.814684,270.334764 349.619273,260.349795 C352.634269,243.669831 350.738877,227.621337 343.846703,212.06467 C341.386219,206.509659 338.851684,201.12503 334.589256,196.705612 C330.144341,192.09649 324.827546,189.60925 318.304753,190.050138" id="Stroke-73"></path>
                    <path d="M318.269578,181 C302.193771,185.26843 292.109688,196.543761 284.030781,210.123693 C276.400703,222.948305 271.426559,236.750441 268.045798,251.277156 C265.176473,263.609934 268.742408,274.865942 272.343614,286.23964 C275.335508,295.689909 278.842363,304.998776 281.401301,314.561465 C283.700112,323.1519 282.941778,331.974201 281.563549,340.744683 C280.023954,350.547142 277.456199,360.195902 277.701335,370.27414 C278.047876,384.482919 283.314773,396.708546 291.96243,407.707219 C301.122404,419.358453 314.030842,426.130853 326.165956,433.978265 C339.700461,442.729426 352.891952,452.007553 366.319761,460.925586 C371.620165,464.445723 377.191278,467.55834 382.577215,470.956397 C387.371476,473.982064 392.710679,474.349184 398.030483,473.76952 C405.031849,473.007175 409.036031,467.910529 411.720182,462.157809 C415.533017,453.994217 415.467764,445.156986 414.287937,436.418999 C411.864794,418.488958 402.179277,403.963999 391.770697,389.826361 C380.682261,374.764775 369.821326,359.56442 362.122468,342.401115 C357.529255,332.160396 354.434192,321.560461 352.819645,310.38701 C350.476745,294.182785 354.592032,278.826975 358.039808,263.385973 C360.008832,254.567185 362.110123,245.780894 361.161324,236.754833 C360.598745,231.414025 359.282241,226.020521 357.422559,220.973058 C353.675858,210.802601 349.302208,200.85347 342.476317,192.244591 C338.337222,187.024108 333.711383,182.354304 326.618311,181.447922 C323.99853,181.11242 321.332897,181.138768 318.687544,181" id="Stroke-75"></path>
                    <path d="M154.360937,211.04225 C146.333938,213.023008 143.207783,221.037298 146.004073,229.546995 C150.078922,241.950415 162.34348,250.358423 175.404691,248.818316 C184.516419,247.744935 188.846446,242.008647 186.259989,233.301656 C182.980015,222.267993 174.842765,215.328822 164.001693,211.578506 C161.213405,210.613767 157.870304,211.179574 154.782381,211.04225" id="Stroke-77"></path>
                </g>
            </g>
        </g>
    </g>
</svg>