<?xml version="1.0" encoding="UTF-8"?>
<svg width="20px" height="20px" viewBox="0 0 20 20" version="1.1" xmlns="http://www.w3.org/2000/svg" xmlns:xlink="http://www.w3.org/1999/xlink">
    <!-- Generator: sketchtool 53.2 (72643) - https://sketchapp.com -->
    <title>279437B8-0360-4D19-932D-33C5B27CDBD4</title>
    <desc>Created with sketchtool.</desc>
    <g id="Page-1" stroke="none" stroke-width="1" fill="none" fill-rule="evenodd">
        <g id="sc1" transform="translate(-809.000000, -820.000000)" fill="#000000">
            <g id="Fill-3" transform="translate(809.000000, 820.000000)">
                <path d="M9.99999864,0 C8.60695744,0 7.30633279,0.262690334 6.09808102,0.788073727 C4.87561552,1.29925853 3.81308179,2.00922636 2.91044708,2.91799903 C2.00781346,3.82677171 1.29353498,4.88462416 0.767590618,6.09158911 C0.255860974,7.31274992 0,8.61199209 0,9.98935106 C0,11.3809086 0.255860974,12.6801508 0.767590618,13.887113 C1.29353498,15.1082765 2.00781346,16.1696786 2.91044708,17.071352 C3.81308179,17.9730257 4.87561552,18.6865434 6.09808102,19.2119276 C7.30633279,19.7373118 8.60695744,20 9.99999864,20 C11.3930426,20 12.6936672,19.7373118 13.901919,19.2119276 C15.1243845,18.6865434 16.1869182,17.9730257 17.0895529,17.071352 C17.9921876,16.1696786 18.7064658,15.1082765 19.2324094,13.887113 C19.7441392,12.6801508 20,11.3809086 20,9.98935106 C20,8.61199209 19.7441392,7.31274992 19.2324094,6.09158911 C18.7064658,4.88462416 17.9921876,3.82677171 17.0895529,2.91799903 C16.1869182,2.00922636 15.1243845,1.29925853 13.901919,0.788073727 C12.6936672,0.262690334 11.3930426,0 9.99999864,0 Z M9.99999864,9.09478243 C9.72992136,9.09478243 9.50959488,9.17642979 9.33901919,9.33972452 C9.1684435,9.50301925 9.08315565,9.7195587 9.08315565,9.98935106 L9.08315565,13.631522 C9.08315565,13.9013143 9.1684435,14.1214062 9.33901919,14.2918002 C9.50959488,14.4621942 9.72992136,14.5473912 9.99999864,14.5473912 C10.2700786,14.5473912 10.4904051,14.4621942 10.6609808,14.2918002 C10.8315565,14.1214062 10.9168443,13.9013143 10.9168443,13.631522 L10.9168443,9.98935106 C10.9168443,9.7195587 10.8315565,9.50301925 10.6609808,9.33972452 C10.4904051,9.17642979 10.2700786,9.09478243 9.99999864,9.09478243 Z M9.36034252,5.72950044 C9.27505194,5.81469745 9.20753399,5.90699376 9.1577832,6.00639209 C9.10802968,6.1057877 9.08315565,6.22648119 9.08315565,6.36847803 C9.08315565,6.49627355 9.10802968,6.60986775 9.1577832,6.70926608 C9.20753399,6.80866441 9.27505194,6.90805729 9.36034252,7.00745562 C9.45984409,7.09265264 9.55579224,7.15654903 9.64818695,7.19915027 C9.74058439,7.24174877 9.85785313,7.26304666 9.99999864,7.26304666 C10.1421469,7.26304666 10.2594156,7.24174877 10.351813,7.19915027 C10.4442078,7.15654903 10.5401559,7.09265264 10.6396602,7.00745562 C10.7249481,6.90805729 10.792466,6.80866441 10.8422168,6.70926608 C10.8919703,6.60986775 10.9168443,6.49627355 10.9168443,6.36847803 C10.9168443,6.22648119 10.8919703,6.1057877 10.8422168,6.00639209 C10.792466,5.90699376 10.7249481,5.81469745 10.6396602,5.72950044 C10.4548681,5.5449051 10.2416512,5.45260879 9.99999864,5.45260879 C9.75834883,5.45260879 9.54513194,5.5449051 9.36034252,5.72950044 Z" id="info"></path>
            </g>
        </g>
    </g>
</svg>