<?xml version="1.0" encoding="UTF-8"?>
<svg width="100px" height="40px" viewBox="0 0 100 40" version="1.1" xmlns="http://www.w3.org/2000/svg" xmlns:xlink="http://www.w3.org/1999/xlink">
    <defs>
        <path d="M32.9294931,0.757701149 C31.7456221,0.884137931 30.7882488,1.77655172 30.5815668,2.94643678 L30.5815668,2.94643678 L25.6836406,30.1151724 C25.6133641,30.5128736 25.0488479,30.534023 24.9488479,30.1427586 L24.9488479,30.1427586 L20.1186636,13.7818391 C19.9336406,13.0590805 19.2548387,12.574023 18.509447,12.6312644 L18.509447,12.6312644 L13.6654378,13.7124138 C13.0087558,13.7632184 12.4571429,14.2252874 12.2937788,14.862069 L12.2937788,14.862069 L7.67995392,30.5317241 C7.59861751,30.8494253 7.14262673,30.8388506 7.0764977,30.5174713 L7.0764977,30.5174713 L5.02511521,19.8901149 L0,20.8542529 L3.99792627,39.5402299 L10.6960829,39.5402299 L15.8435484,20.9245977 C15.9769585,20.382069 16.7504608,20.382069 16.883871,20.9245977 L16.883871,20.9245977 L22.0313364,39.5402299 L28.7294931,39.5402299 L29.6241935,34.9121839 L29.6241935,34.911954 L36.1792627,0.18045977 L32.9294931,0.757701149 Z" id="path-1"></path>
    </defs>
   
    <use id="Clip-6" fill="#000" xlink:href="#path-1"></use>
</svg>