<?xml version="1.0" encoding="UTF-8"?>
<svg width="100px" height="40px" viewBox="0 0 100 40" version="1.1" xmlns="http://www.w3.org/2000/svg" xmlns:xlink="http://www.w3.org/1999/xlink">
    <!-- Generator: sketchtool 54.1 (76490) - https://sketchapp.com -->
    <title>D94C1478-7368-475B-8B45-F943B8FED088</title>
    <desc>Created with sketchtool.</desc>
    <defs>
        <path d="M32.9294931,0.757701149 C31.7456221,0.884137931 30.7882488,1.77655172 30.5815668,2.94643678 L30.5815668,2.94643678 L25.6836406,30.1151724 C25.6133641,30.5128736 25.0488479,30.534023 24.9488479,30.1427586 L24.9488479,30.1427586 L20.1186636,13.7818391 C19.9336406,13.0590805 19.2548387,12.574023 18.509447,12.6312644 L18.509447,12.6312644 L13.6654378,13.7124138 C13.0087558,13.7632184 12.4571429,14.2252874 12.2937788,14.862069 L12.2937788,14.862069 L7.67995392,30.5317241 C7.59861751,30.8494253 7.14262673,30.8388506 7.0764977,30.5174713 L7.0764977,30.5174713 L5.02511521,19.8901149 L0,20.8542529 L3.99792627,39.5402299 L10.6960829,39.5402299 L15.8435484,20.9245977 C15.9769585,20.382069 16.7504608,20.382069 16.883871,20.9245977 L16.883871,20.9245977 L22.0313364,39.5402299 L28.7294931,39.5402299 L29.6241935,34.9121839 L29.6241935,34.911954 L36.1792627,0.18045977 L32.9294931,0.757701149 Z" id="path-1"></path>
    </defs>
    <g id="Page-1" stroke="none" stroke-width="1" fill="none" fill-rule="evenodd">
        <g id="spalsh-copy" transform="translate(-130.000000, -41.000000)">
            <g id="logo" transform="translate(130.000000, 41.000000)">
                <g id="Group-11" transform="translate(0.000000, 0.049425)">
                    <polygon id="Fill-1" fill="#FFFFFF" points="40.863318 8.66216092 40.863318 39.5403218 46.0153917 39.5403218 46.0153917 7.78836782"></polygon>
                    <g id="Group-4" transform="translate(51.612903, 2.298851)" fill="#FFFFFF">
                        <path d="M22.7669355,0.119885057 L2.81624424,3.75505747 C1.20103687,3.90908046 -0.024078341,5.27574713 0.00195852535,6.89436782 L0.027764977,8.85551724 L9.52062212,7.13137931 L9.52062212,37.2414943 L14.6726959,37.2414943 L14.7024194,6.16586207 L22.7669355,4.6716092 L22.7669355,0.119885057 Z" id="Fill-2"></path>
                    </g>
                    <g id="Group-7">
                        <mask id="mask-2" fill="white">
                            <use xlink:href="#path-1"></use>
                        </mask>
                        <use id="Clip-6" fill="#B0140E" xlink:href="#path-1"></use>
                    </g>
                    <g id="Group-10" transform="translate(78.801843, 0.229885)" fill="#FFFFFF">
                        <path d="M11.9619585,14.815908 L9.11380184,14.815908 C6.53730415,14.815908 5.2490553,13.5306207 5.2490553,10.9602759 L5.2490553,9.05521839 C5.2490553,6.48533333 6.53730415,5.20004598 9.11380184,5.20004598 L11.8714055,5.20004598 C14.1269355,5.20004598 15.3951382,6.18533333 15.6760138,8.15521839 L15.8545853,9.77498851 L20.9237097,8.85544828 L20.8267051,7.65383908 C20.3773963,2.59222989 17.3942166,0.0591264368 11.8714055,0.0591264368 L9.11380184,0.0591264368 C3.10228111,0.0591264368 0.0969815668,3.05797701 0.0969815668,9.05521839 L0.0969815668,10.9602759 C0.0969815668,16.957977 3.10228111,19.9563678 9.11380184,19.9563678 L11.9619585,19.9563678 C14.5382258,19.9563678 15.8260138,21.2416552 15.8260138,23.8115402 L15.8260138,30.0844138 C15.8260138,32.6549885 14.5382258,33.9398161 11.9619585,33.9398161 L9.11380184,33.9395862 C6.53730415,33.9395862 5.2490553,32.6545287 5.2490553,30.0844138 L5.2490553,29.417977 L0.103202765,30.4749885 C0.232926267,36.2106207 3.23476959,39.0805057 9.11380184,39.0805057 L11.9619585,39.0805057 C17.9730184,39.0805057 20.9787788,36.0821149 20.9787788,30.0844138 L20.9787788,23.8115402 C20.9787788,17.8142989 17.9730184,14.815908 11.9619585,14.815908" id="Fill-8"></path>
                    </g>
                </g>
            </g>
        </g>
    </g>
</svg>