<?xml version="1.0" encoding="UTF-8"?>
<svg width="11px" height="14px" viewBox="0 0 11 14" version="1.1" xmlns="http://www.w3.org/2000/svg" xmlns:xlink="http://www.w3.org/1999/xlink">
    <!-- Generator: sketchtool 54.1 (76490) - https://sketchapp.com -->
    <title>BFF86FDB-7ED2-4E55-85A3-95D368580CF9</title>
    <desc>Created with sketchtool.</desc>
    <g id="Page-1" stroke="none" stroke-width="1" fill="none" fill-rule="evenodd">
        <g id="spalsh-copy" transform="translate(-714.000000, -66.000000)" fill="#ffffff">
            <g id="Group" transform="translate(714.000000, 66.000000)">
                <g id="ring" transform="translate(0.000000, -0.000000)">
                    <path d="M5.49677547,14 C5.87290173,14 6.19529125,13.8632292 6.46395022,13.5896834 C6.73261124,13.3161377 6.86694073,12.9878878 6.86694073,12.6049237 L4.12661227,12.6049237 C4.12661227,12.9878878 4.26094175,13.3161377 4.52960071,13.5896834 C4.79826174,13.8632292 5.12065126,14 5.49677547,14 Z" id="Path"></path>
                    <path d="M10.9451953,10.9144195 L10.3165307,9.51934421 L10.3165307,7.23798308 L10.3165307,6.30246237 C10.3165307,6.28057812 10.3138442,6.26142914 10.3084714,6.24501753 C10.3030985,6.22860382 10.3004121,6.20945693 10.3004121,6.18757268 C10.3004121,6.13286311 10.3004121,6.07542037 10.3004121,6.01524025 C10.3004121,5.95506014 10.2950372,5.89214476 10.2842915,5.82649411 C10.2842915,5.79366879 10.2816051,5.76084346 10.2762322,5.72801814 C10.2708594,5.69519281 10.2681709,5.66236749 10.2681709,5.62954216 C10.2574252,5.58577576 10.2493659,5.54474463 10.2439931,5.50644667 C10.2386202,5.46815081 10.2305589,5.42711968 10.2198132,5.38335328 C10.2198132,5.33958478 10.2144403,5.29855364 10.2036926,5.26025778 C10.1929469,5.22195982 10.1822012,5.18640133 10.1714555,5.1535739 C10.1607077,5.12074858 10.1526485,5.08792535 10.1472756,5.05510003 C10.1419028,5.0222726 10.1338414,4.98944938 10.1230957,4.95662195 C10.11235,4.91285555 10.1016023,4.86908915 10.0908566,4.82532065 C10.0801109,4.78155425 10.0639903,4.74325839 10.0424989,4.71043307 C10.0317511,4.67760774 10.0236918,4.64751769 10.018319,4.6201629 C10.0129461,4.59280811 10.0048848,4.56272015 9.99413909,4.52989483 C9.97264563,4.4970674 9.95384065,4.45877154 9.93772004,4.41500514 C9.92160149,4.37123874 9.90279446,4.32747024 9.881301,4.28370384 C9.8705553,4.26181959 9.8598096,4.23993744 9.8490639,4.21805319 C9.83831614,4.19616894 9.83294329,4.17428679 9.83294329,4.15240254 C9.80070414,4.10863614 9.77383783,4.06486764 9.75234437,4.02110124 C9.73085297,3.97733484 9.70935951,3.93356634 9.68786605,3.88979994 C9.68786605,3.87885887 9.68517962,3.87065096 9.67980678,3.86518043 C9.67443393,3.85970989 9.6717475,3.85697462 9.6717475,3.85697462 C9.53204311,3.61625417 9.38159508,3.3946848 9.22039929,3.19226232 C9.05920349,2.98983773 8.88188915,2.80109369 8.6884542,2.62602599 C8.67770644,2.62602599 8.67233359,2.62328862 8.67233359,2.61781808 C8.67233359,2.61234754 8.67233359,2.60961228 8.67233359,2.60961228 C8.61860097,2.56584588 8.56755684,2.52481475 8.51919708,2.48651678 C8.47083937,2.44822092 8.42516602,2.41266033 8.38218117,2.379835 C8.37143547,2.36889393 8.36337413,2.36068602 8.35800128,2.35521548 C8.35262843,2.34974495 8.34994201,2.34700968 8.34994201,2.34700968 C8.29620939,2.31418435 8.24516526,2.27862376 8.19680549,2.2403279 C8.14844779,2.20202993 8.09740159,2.16647144 8.04367104,2.13364401 C8.03292328,2.13364401 8.024864,2.13090875 8.01949115,2.12543821 C8.0141183,2.11996767 8.01142982,2.1172324 8.01142982,2.1172324 C7.95769926,2.08440708 7.90396664,2.05158175 7.85023609,2.01875643 C7.79650347,1.9859311 7.737398,1.95310578 7.67291968,1.92028045 C7.54396305,1.8546298 7.41231999,1.79718496 7.27799051,1.74794802 C7.14365897,1.69870899 7.00664512,1.65220732 6.86694073,1.60843882 L6.86694073,1.39507526 C6.86694073,1.01211033 6.73261124,0.683861285 6.46395022,0.41031551 C6.19529125,0.136769736 5.87290173,-2.66453526e-14 5.49677547,-2.66453526e-14 C5.12065126,-2.66453526e-14 4.79826174,0.136769736 4.52960071,0.41031551 C4.26094175,0.683861285 4.12661227,1.01211033 4.12661227,1.39507526 L4.12661227,1.60843882 C3.98690787,1.65220732 3.84989403,1.69870899 3.71556248,1.74794802 C3.581233,1.79718496 3.44958994,1.8546298 3.32063331,1.92028045 C3.25615499,1.95310578 3.19704952,1.9859311 3.14331897,2.01875643 C3.08958635,2.05158175 3.03585373,2.08440708 2.98212111,2.1172324 C2.98212111,2.1172324 2.97943469,2.11996767 2.97406184,2.12543821 C2.96868899,2.13090875 2.96062972,2.13364401 2.94988402,2.13364401 C2.8961514,2.16647144 2.84510521,2.20202993 2.7967475,2.2403279 C2.74838773,2.27862376 2.6973436,2.31418435 2.64361098,2.34700968 C2.64361098,2.34700968 2.64092456,2.34974495 2.63555171,2.35521548 C2.63017886,2.36068602 2.62211752,2.36889393 2.61137183,2.379835 C2.56838697,2.41266033 2.52271362,2.44822092 2.47435592,2.48651678 C2.42599615,2.52481475 2.37495202,2.56584588 2.3212194,2.60961228 C2.3212194,2.60961228 2.31853298,2.61234754 2.31316013,2.61781808 C2.30778728,2.62328862 2.30510085,2.62602599 2.30510085,2.62602599 C2.11166384,2.80109369 1.93435033,2.992573 1.77315371,3.20046812 C1.61195709,3.40836325 1.46150927,3.62719525 1.32180549,3.85697462 C1.32180549,3.85697462 1.31911886,3.85970989 1.31374581,3.86518043 C1.30837254,3.87065096 1.30568591,3.87885887 1.30568591,3.88979994 C1.28419307,3.93356634 1.26270044,3.97733484 1.2412076,4.02110124 C1.21971476,4.06486764 1.19822212,4.10863614 1.17672928,4.15240254 C1.16598276,4.17428679 1.15523664,4.19616894 1.14449012,4.21805319 C1.1337436,4.23993744 1.12299749,4.26181959 1.11225096,4.28370384 C1.09075812,4.32747024 1.07195212,4.37123874 1.05583254,4.41500514 C1.03971275,4.45877154 1.02090675,4.4970674 0.999413909,4.52989483 C0.988667385,4.56272015 0.980607698,4.59280811 0.975234437,4.6201629 C0.969861381,4.64751769 0.961801695,4.67760774 0.951055171,4.71043307 C0.92956233,4.74325839 0.913442957,4.78155425 0.902696433,4.82532065 C0.89194991,4.86908915 0.881203799,4.91285555 0.870457275,4.95662195 C0.859710751,4.98944938 0.851651065,5.0222726 0.846277803,5.05510003 C0.840904748,5.08792535 0.832845061,5.12074858 0.822098538,5.1535739 C0.811352014,5.18640133 0.800605903,5.22195982 0.789859379,5.26025778 C0.779112856,5.29855364 0.7737398,5.33958478 0.7737398,5.38335328 C0.762993276,5.42711968 0.75493359,5.46815081 0.749560328,5.50644667 C0.744187273,5.54474463 0.736127586,5.58577576 0.725381063,5.62954216 C0.725381063,5.66236749 0.722694432,5.69519281 0.71732117,5.72801814 C0.711948114,5.76084346 0.709261483,5.79366879 0.709261483,5.82649411 C0.69851496,5.89214476 0.693141904,5.95506014 0.693141904,6.01524025 C0.693141904,6.07542037 0.693141904,6.13286311 0.693141904,6.18757268 C0.693141904,6.20945693 0.690455273,6.22860382 0.685082012,6.24501753 C0.679708956,6.26142914 0.677022325,6.28057812 0.677022325,6.30246237 L0.677022325,7.23798308 L0.677022325,9.51934421 L0.0483587375,10.9144195 C0.0376122964,10.9581859 0.0268660203,11.0046896 0.0161195792,11.0539266 C0.0053731401,11.1031656 4.17443857e-14,11.1496673 4.17443857e-14,11.1934337 C4.17443857e-14,11.3903877 0.0671642461,11.5572475 0.20149474,11.6940215 C0.335825151,11.8307933 0.494332867,11.8991792 0.677022325,11.8991792 L10.3165307,11.8991792 C10.4992199,11.8991792 10.6577272,11.8307933 10.7920588,11.6940215 C10.9263883,11.5572475 10.993553,11.3903877 10.993553,11.1934337 C10.993553,11.1496673 10.9881801,11.1031656 10.9774324,11.0539266 C10.9666867,11.0046896 10.955941,10.9581859 10.9451953,10.9144195 Z" id="Path"></path>
                </g>
            </g>
        </g>
    </g>
</svg>